# Blender v2.90.1 OBJ File: ''
# www.blender.org
mtllib Collider.mtl
g default
v -0.027225 -0.411594 0.662574
v 0.027225 -0.411594 0.662574
v 0.037932 -0.145064 0.700208
v -0.037932 -0.145064 0.700208
v 0.151647 -0.409832 0.635469
v 0.241257 -0.282816 0.605040
v 0.160509 0.123640 0.651498
v 0.239470 0.136786 0.643579
v 0.287718 0.269908 0.710782
v 0.129400 0.251980 0.761466
v 0.273255 0.131518 0.627293
v 0.357051 0.265939 0.649095
v 0.271121 0.047573 0.614868
v 0.129445 0.063348 0.633666
v 0.066332 -0.147376 0.782871
v 0.450831 0.075172 0.447329
v 0.328035 0.087067 0.561253
v 0.446970 0.168460 0.486182
v 0.322009 0.103039 0.570118
v 0.046617 0.074579 0.699096
v -0.056905 0.244683 0.753296
v -0.046617 0.074579 0.699096
v -0.041555 -0.134452 0.840681
v 0.041555 -0.134452 0.840681
v 0.158582 -0.611947 0.629519
v 0.077884 -0.413642 0.662710
v -0.025476 -0.418741 0.682728
v -0.047906 -0.653950 0.660148
v -0.055333 -0.764092 0.284648
v 0.151821 -0.723346 0.281679
v 0.334434 -0.587865 0.141689
v 0.420723 -0.400687 -0.133871
v 0.484115 -0.354000 0.099413
v 0.426111 -0.468886 0.245230
v 0.489294 -0.066488 0.013454
v 0.528804 0.143575 0.172607
v 0.482975 -0.046293 0.003525
v 0.560818 0.311632 0.093110
v 0.550854 0.288290 0.204049
v 0.480816 0.625312 0.270969
v 0.453003 0.543770 0.400502
v 0.162678 0.663711 0.573843
v 0.176166 0.796972 0.453711
v -0.085267 0.807727 0.477202
v -0.078970 0.667921 0.593339
v 0.384321 0.718037 0.353892
v 0.360655 0.612493 0.483950
v 0.043997 -0.132858 0.731316
v 0.057178 -0.141959 0.688180
v 0.281593 0.309177 -0.793851
v 0.247617 -0.110676 -0.694756
v -0.114442 -0.126784 -0.736987
v -0.122729 0.304487 -0.846961
v 0.435209 0.312597 -0.649222
v 0.395568 -0.087328 -0.590631
v 0.558859 0.312883 -0.253625
v 0.578685 0.206570 -0.049151
v 0.475173 -0.058200 -0.001829
v 0.530160 -0.063024 -0.192475
v -0.056914 -0.912601 0.181253
v 0.152679 -0.885614 0.147700
v 0.252133 0.728665 -0.677492
v -0.120154 0.728795 -0.738578
v 0.182123 0.982998 -0.010961
v 0.215302 0.869023 -0.573627
v -0.104112 0.874107 -0.616049
v -0.086934 1.006438 0.006147
v 0.488722 0.715684 -0.155197
v 0.396743 0.849911 -0.091833
v 0.377659 0.728449 -0.549663
v 0.315131 0.862038 -0.470648
v 0.230922 -0.387077 -0.546551
v -0.112692 -0.386906 -0.589700
v 0.310260 -0.383029 -0.450755
v 0.415299 -0.381755 -0.219967
v 0.379536 -0.773729 0.044797
v 0.233490 -0.591364 -0.567353
v -0.113006 -0.588189 -0.610588
v 0.427766 -0.623784 -0.240603
v 0.317725 -0.601106 -0.467918
v 0.436917 -0.651978 -0.173487
v -0.241257 -0.282816 0.605040
v -0.151647 -0.409832 0.635469
v -0.124025 0.105366 0.639264
v -0.287718 0.269908 0.710782
v -0.239470 0.136786 0.643579
v -0.357051 0.265939 0.649095
v -0.273255 0.131518 0.627293
v -0.271121 0.047573 0.614868
v -0.066332 -0.147376 0.782871
v -0.129445 0.063348 0.633666
v -0.450831 0.075172 0.447329
v -0.328035 0.087067 0.561253
v -0.446970 0.168460 0.486182
v -0.322009 0.103039 0.570118
v -0.240428 -0.540143 0.586859
v -0.121748 -0.413553 0.636489
v -0.218360 -0.685954 0.285985
v -0.334434 -0.587865 0.141689
v -0.426111 -0.468886 0.245230
v -0.484115 -0.354000 0.099413
v -0.415299 -0.381755 -0.219967
v -0.528804 0.143575 0.172607
v -0.482975 -0.046293 0.003525
v -0.550854 0.288290 0.204049
v -0.560818 0.311632 0.093110
v -0.453003 0.543770 0.400502
v -0.480816 0.625312 0.270969
v -0.360655 0.612493 0.483950
v -0.384321 0.718037 0.353892
v -0.043997 -0.132858 0.731316
v -0.057178 -0.141959 0.688180
v -0.435209 0.312597 -0.649222
v -0.395568 -0.087328 -0.590631
v -0.558859 0.312883 -0.253625
v -0.529509 -0.018287 -0.201867
v -0.214905 -0.860269 0.121653
v -0.488722 0.715684 -0.155197
v -0.396743 0.849911 -0.091833
v -0.377659 0.728449 -0.549663
v -0.315131 0.862038 -0.470648
v -0.310260 -0.383029 -0.450755
v -0.379536 -0.773729 0.044797
v -0.317725 -0.601106 -0.467918
v -0.427766 -0.623784 -0.240603
v -0.602138 -0.020763 -0.140485
v -0.555239 -0.028133 -0.115715
v -0.489294 -0.066488 0.013454
v -0.475173 -0.058200 -0.001829
vt 0.115150 0.299765
vt 0.093229 0.429773
vt 0.115150 0.299765
vt 0.130938 0.300625
vt 0.093229 0.429773
vt 0.126214 0.567254
vt 0.057547 0.623443
vt 0.121601 0.560841
vt 0.135700 0.564684
vt 0.087070 0.632188
vt 0.142938 0.523737
vt 0.045079 0.428645
vt 0.148662 0.362580
vt 0.174168 0.543002
vt 0.240526 0.537200
vt 0.217895 0.582703
vt 0.123001 0.630252
vt 0.169004 0.550792
vt 0.093876 0.536910
vt 0.062306 0.619884
vt 0.093876 0.536910
vt 0.131988 0.531432
vt 0.011406 0.434949
vt 0.115070 0.298766
vt 0.116563 0.181549
vt 0.134404 0.202037
vt 0.337014 0.147699
vt 0.418555 0.213784
vt 0.443181 0.327858
vt 0.358245 0.271819
vt 0.493250 0.468101
vt 0.400546 0.570565
vt 0.446852 0.652540
vt 0.382232 0.641154
vt 0.343252 0.805546
vt 0.267802 0.765772
vt 0.166834 0.824276
vt 0.223125 0.894525
vt 0.155478 0.826330
vt 0.294951 0.850776
vt 0.219195 0.799293
vt 0.499034 0.477951
vt 0.236808 0.889279
vt 0.011406 0.434949
vt 0.100235 0.431287
vt 0.075109 0.435726
vt 0.905769 0.446547
vt 0.994425 0.649055
vt 0.963490 0.651342
vt 0.845118 0.457935
vt 0.879246 0.653010
vt 0.648818 0.653150
vt 0.613200 0.469790
vt 0.529716 0.601293
vt 0.335285 0.127824
vt 0.415054 0.068548
vt 0.931294 0.856023
vt 0.895712 0.855960
vt 0.835213 0.924424
vt 0.497506 0.991452
vt 0.507471 0.980018
vt 0.591486 0.849628
vt 0.554578 0.915101
vt 0.821255 0.855855
vt 0.775230 0.921016
vt 0.859923 0.926903
vt 0.844576 0.311807
vt 0.930368 0.438689
vt 0.819442 0.311724
vt 0.629213 0.314320
vt 0.763643 0.313699
vt 0.474993 0.123123
vt 0.831559 0.212077
vt 0.856742 0.213626
vt 0.641233 0.196263
vt 0.773640 0.207325
vt 0.602139 0.182511
vt 0.579064 0.305085
vt 0.502152 0.472143
vt 0.130938 0.300625
vt 0.126214 0.567254
vt 0.128728 0.551928
vt 0.087070 0.632188
vt 0.135700 0.564684
vt 0.142938 0.523737
vt 0.045079 0.428645
vt 0.131988 0.531432
vt 0.148662 0.362580
vt 0.174168 0.543002
vt 0.240526 0.537200
vt 0.217895 0.582703
vt 0.169004 0.550792
vt 0.123001 0.630252
vt 0.130344 0.298809
vt 0.159253 0.237061
vt 0.334506 0.165938
vt 0.418555 0.213784
vt 0.443181 0.327858
vt 0.629213 0.314320
vt 0.499034 0.477951
vt 0.400546 0.570565
vt 0.446852 0.652540
vt 0.382232 0.641154
vt 0.343252 0.805546
vt 0.267802 0.765772
vt 0.294951 0.850776
vt 0.358245 0.271819
vt 0.219195 0.799293
vt 0.075109 0.435726
vt 0.100235 0.431287
vt 0.845118 0.457935
vt 0.879246 0.653010
vt 0.648818 0.653150
vt 0.618671 0.491612
vt 0.430226 0.080911
vt 0.591486 0.849628
vt 0.554578 0.915101
vt 0.821255 0.855855
vt 0.775230 0.921016
vt 0.474993 0.123123
vt 0.763643 0.313699
vt 0.641233 0.196263
vt 0.773640 0.207325
vt 0.568488 0.486809
vt 0.582917 0.490404
vt 0.493250 0.468101
vt 0.502152 0.472143
vt 0.103411 0.296279
vt 0.395510 0.055384
vn -0.1435 0.4678 0.8721
vn -0.2828 0.0426 0.9582
vn 0.3663 0.0804 0.9270
vn 0.3770 0.0473 0.9250
vn 0.1297 0.1870 0.9738
vn 0.1827 -0.9085 0.3757
vn 0.1843 -0.8598 0.4763
vn -0.0816 -0.8598 0.5040
vn 0.2597 -0.7807 0.5685
vn 0.3339 -0.7828 0.5251
vn 0.0046 -0.9276 0.3736
vn -0.0261 -0.2262 0.9737
vn -0.1407 -0.0646 0.9879
vn 0.0713 -0.1919 0.9788
vn 0.6702 0.1434 0.7282
vn 0.3974 0.1460 0.9060
vn 0.3824 0.1492 0.9119
vn 0.5856 -0.2938 0.7555
vn 0.5567 -0.1023 0.8244
vn 0.6166 0.2274 0.7537
vn 0.3903 -0.7723 0.5012
vn 0.5558 -0.1232 0.8222
vn -0.1715 0.3840 0.9073
vn 0.2884 0.6117 0.7366
vn 0.2882 0.6037 0.7433
vn 0.9150 0.1889 0.3566
vn 0.8817 0.1821 0.4353
vn 0.4159 0.5041 0.7569
vn 0.9958 0.0717 -0.0570
vn 0.0716 -0.2890 0.9546
vn 0.0522 0.0245 0.9983
vn 0.0441 0.0282 0.9986
vn 0.7217 -0.0177 0.6920
vn 0.3939 0.0097 0.9191
vn 0.2687 -0.0062 0.9632
vn 0.1319 -0.9187 0.3724
vn 0.2647 -0.9587 0.1045
vn 0.3252 -0.8736 0.3620
vn 0.9341 -0.3466 0.0851
vn 0.9342 -0.3470 0.0833
vn 0.9343 -0.3445 0.0918
vn 0.9775 -0.1859 -0.1001
vn 0.9825 -0.1719 -0.0720
vn 0.9810 -0.1701 -0.0930
vn 0.9898 -0.1413 -0.0179
vn 0.9872 -0.1596 -0.0035
vn 0.9842 -0.1765 0.0151
vn 0.9772 0.0703 0.2004
vn 0.9787 0.0693 0.1934
vn 0.1100 0.6401 0.7604
vn 0.0787 0.6278 0.7744
vn 0.0879 0.6283 0.7730
vn 0.9386 0.2056 0.2770
vn 0.7760 0.4294 0.4620
vn 0.7819 0.4219 0.4590
vn 0.8712 -0.1905 0.4525
vn 0.9346 -0.1224 0.3340
vn 0.9239 -0.1548 0.3498
vn 0.8834 -0.3242 0.3384
vn 0.6132 -0.7652 0.1960
vn 0.7459 -0.6323 0.2093
vn 0.8998 -0.1529 0.4086
vn 0.8882 -0.1680 0.4276
vn 0.9839 -0.1014 0.1469
vn 0.9993 -0.0337 -0.0182
vn 0.9913 -0.1308 -0.0158
vn 0.9510 -0.1321 0.2797
vn 0.5922 0.2362 0.7704
vn 0.5669 0.2381 0.7887
vn 0.6025 0.5690 0.5597
vn 0.3893 0.6072 0.6926
vn 0.4028 0.6017 0.6897
vn 0.0508 0.2738 0.9604
vn -0.0352 0.2285 0.9729
vn 0.1646 0.2929 0.9419
vn 0.4007 -0.0729 0.9133
vn 0.3935 -0.5085 0.7659
vn 0.3903 -0.0757 0.9176
vn 0.7950 -0.3260 0.5116
vn 0.0888 -0.8204 0.5648
vn 0.7479 -0.6007 0.2824
vn 0.0887 -0.8204 0.5648
vn 0.5944 -0.3993 0.6980
vn 0.6135 0.1162 0.7811
vn 0.5969 -0.3956 0.6980
vn 0.0705 -0.1035 -0.9921
vn 0.0621 -0.1107 -0.9919
vn 0.0717 -0.1024 -0.9922
vn 0.6740 -0.0894 -0.7333
vn 0.6898 -0.0818 -0.7194
vn 0.6867 -0.0733 -0.7233
vn 0.9799 -0.1052 -0.1693
vn 0.6283 -0.3563 0.6916
vn -0.8810 0.1272 0.4556
vn -0.8897 0.1163 0.4415
vn 0.1271 -0.8043 0.5804
vn 0.1128 -0.2478 0.9622
vn 0.2438 -0.8187 0.5199
vn 0.1007 0.1493 -0.9837
vn 0.1158 0.1621 -0.9800
vn 0.0556 0.9777 -0.2026
vn 0.0681 0.9782 -0.1962
vn 0.0778 0.9785 -0.1912
vn 0.0669 0.9240 0.3765
vn 0.0867 0.9583 0.2721
vn 0.0572 0.9226 0.3814
vn 0.9889 -0.1392 0.0515
vn 0.9966 -0.0774 -0.0275
vn 0.9936 -0.0658 -0.0915
vn 0.9924 0.1114 -0.0519
vn 0.9424 0.2807 0.1820
vn 0.9374 0.3023 0.1730
vn 0.8376 0.5455 0.0291
vn 0.5144 0.7362 0.4398
vn 0.5624 0.7137 0.4175
vn 0.4628 0.8659 0.1896
vn 0.3543 0.8648 0.3556
vn 0.6726 0.1494 -0.7247
vn 0.6723 0.1492 -0.7251
vn 0.9818 0.1256 -0.1426
vn 0.9456 0.3049 -0.1135
vn 0.7829 0.5559 -0.2794
vn 0.5783 0.8153 0.0302
vn 0.4806 0.8758 0.0449
vn 0.2938 0.9401 -0.1731
vn 0.2358 0.9522 -0.1942
vn 0.1210 0.3288 -0.9366
vn 0.0583 0.8860 -0.4601
vn 0.0519 0.8746 -0.4820
vn 0.7847 0.5459 -0.2935
vn 0.3191 0.6256 -0.7119
vn 0.0705 -0.7312 -0.6785
vn 0.0716 -0.7322 -0.6773
vn 0.0773 -0.7357 -0.6729
vn 0.5478 -0.6333 -0.5467
vn 0.3472 -0.7033 -0.6203
vn 0.2277 -0.6758 -0.7010
vn 0.8309 -0.3277 -0.4496
vn 0.4719 -0.7095 -0.5235
vn 0.6059 -0.2861 0.7423
vn 0.4630 -0.8121 0.3550
vn 0.4124 -0.5100 0.7549
vn 0.0671 0.1049 -0.9922
vn 0.0625 0.2647 -0.9623
vn 0.0625 0.2648 -0.9623
vn 0.8616 0.0739 -0.5022
vn 0.8551 0.1691 -0.4900
vn 0.8532 0.1640 -0.4952
vn 0.3406 0.0991 -0.9350
vn 0.3322 0.2559 -0.9078
vn 0.9907 0.0002 0.1359
vn 0.9429 -0.0592 0.3276
vn 0.9042 0.1118 0.4123
vn 0.9306 0.1489 -0.3345
vn 0.9938 -0.0351 0.1052
vn 0.7579 0.2449 0.6046
vn -0.2686 0.8189 0.5071
vn -0.7011 0.4948 0.5134
vn -0.8079 0.3661 -0.4618
vn 0.7520 -0.1648 -0.6382
vn 0.2978 -0.1247 -0.9464
vn -0.3770 0.0473 0.9250
vn -0.3663 0.0804 0.9270
vn -0.1297 0.1870 0.9738
vn -0.1761 -0.8645 0.4707
vn -0.1999 -0.9019 0.3829
vn 0.0344 -0.8591 0.5107
vn -0.3339 -0.7828 0.5251
vn -0.2597 -0.7807 0.5685
vn -0.0046 -0.9276 0.3736
vn 0.0261 -0.2262 0.9737
vn 0.1407 -0.0646 0.9879
vn 0.6650 0.0073 0.7468
vn -0.3974 0.1460 0.9060
vn -0.6702 0.1434 0.7282
vn -0.3824 0.1492 0.9119
vn -0.5856 -0.2938 0.7555
vn -0.5567 -0.1023 0.8244
vn -0.5558 -0.1232 0.8222
vn -0.3903 -0.7723 0.5012
vn -0.2763 0.6252 0.7299
vn -0.8953 0.2728 0.3522
vn -0.8516 0.3227 0.4130
vn -0.1480 0.6209 0.7698
vn -0.9958 0.0717 -0.0570
vn -0.6173 0.4524 0.6437
vn -0.3381 0.1305 0.9320
vn -0.3679 -0.3463 0.8630
vn -0.3133 0.1361 0.9399
vn -0.7093 -0.0282 0.7044
vn -0.2743 -0.0883 0.9576
vn -0.4603 0.0718 0.8849
vn -0.4590 -0.8759 0.1487
vn -0.5149 -0.8401 0.1706
vn -0.5633 -0.8060 0.1820
vn -0.9340 -0.3463 0.0880
vn -0.9341 -0.3470 0.0841
vn -0.9346 -0.3472 0.0771
vn -0.9789 -0.1832 -0.0907
vn -0.9793 -0.1794 -0.0941
vn -0.9786 -0.1809 -0.0979
vn -0.9898 -0.1413 -0.0179
vn -0.9872 -0.1596 -0.0035
vn -0.9891 -0.1414 -0.0409
vn -0.9839 0.1733 0.0435
vn -0.9772 0.0703 0.2004
vn -0.9386 0.2056 0.2770
vn -0.7760 0.4294 0.4620
vn -0.9398 0.2105 0.2692
vn -0.8770 -0.1767 0.4469
vn -0.9386 -0.1091 0.3273
vn -0.9096 -0.0594 0.4112
vn -0.8863 -0.3344 0.3205
vn -0.6145 -0.7656 0.1904
vn -0.8774 -0.3025 0.3725
vn -0.8998 -0.1529 0.4086
vn -0.8882 -0.1680 0.4276
vn -0.9510 -0.1321 0.2797
vn -0.9787 0.0693 0.1934
vn -0.7982 0.1345 0.5871
vn -0.5922 0.2362 0.7704
vn -0.7819 0.4219 0.4590
vn -0.6102 0.5804 0.5393
vn -0.3841 0.5977 0.7037
vn -0.5932 0.5993 0.5376
vn -0.3967 0.5970 0.6973
vn -0.1806 0.2864 0.9409
vn 0.0831 0.2017 0.9759
vn -0.8492 0.0191 0.5278
vn -0.7950 -0.3260 0.5116
vn -0.0835 0.6639 0.7432
vn -0.0888 -0.8204 0.5648
vn -0.0887 -0.8204 0.5648
vn -0.7479 -0.6007 0.2824
vn -0.5944 -0.3993 0.6980
vn -0.6135 0.1162 0.7811
vn -0.8660 -0.2203 0.4489
vn -0.6769 -0.0951 -0.7299
vn -0.6860 -0.0869 -0.7224
vn -0.6890 -0.0833 -0.7200
vn -0.9786 -0.0920 -0.1840
vn -0.9782 -0.0886 -0.1879
vn -0.4963 -0.3423 0.7978
vn -0.4725 -0.8100 0.3474
vn -0.5048 -0.8294 0.2394
vn -0.9885 -0.1430 0.0493
vn -0.9915 -0.1301 0.0098
vn -0.9569 -0.2411 0.1620
vn -0.9924 0.1114 -0.0519
vn -0.9936 -0.0855 -0.0744
vn -0.8376 0.5455 0.0291
vn -0.9374 0.3023 0.1730
vn -0.5144 0.7362 0.4398
vn -0.4513 0.8708 0.1951
vn -0.5734 0.7087 0.4110
vn -0.3646 0.8577 0.3624
vn -0.6685 0.1502 -0.7284
vn -0.6767 0.1585 -0.7190
vn -0.9818 0.1256 -0.1426
vn -0.7822 0.5531 -0.2868
vn -0.9456 0.3049 -0.1135
vn -0.5783 0.8153 0.0302
vn -0.3473 0.9236 -0.1625
vn -0.4703 0.8812 0.0484
vn -0.2833 0.9374 -0.2024
vn -0.7862 0.5444 -0.2923
vn -0.3172 0.6238 -0.7143
vn -0.3164 0.6224 -0.7159
vn -0.3057 -0.6935 -0.6523
vn -0.5598 -0.6342 -0.5333
vn -0.2782 -0.6782 -0.6802
vn -0.8462 -0.3070 -0.4356
vn -0.8075 -0.5177 -0.2827
vn -0.5969 -0.3110 0.7396
vn -0.3976 -0.2354 0.8869
vn -0.8612 0.0731 -0.5030
vn -0.8551 0.1691 -0.4900
vn -0.8648 0.0811 -0.4955
vn -0.3401 0.0989 -0.9352
vn -0.8536 0.1645 -0.4942
vn -0.9432 -0.0509 0.3284
vn -0.9890 -0.0155 0.1470
vn -0.9024 0.1232 0.4129
vn 0.1978 -0.9443 0.2630
vn 0.3045 -0.6893 0.6573
vn -0.7861 0.1780 0.5919
vn 0.5056 0.6956 0.5105
vn 0.2215 0.8217 0.5251
vn -0.4038 -0.7803 0.4777
vn -0.7430 0.6222 -0.2466
vn 0.0481 -0.4552 0.8891
vn -0.5819 -0.1206 0.8043
vn -0.5475 0.6188 0.5633
vn -0.1148 -0.4354 0.8929
vn -0.7874 0.0696 0.6125
vn -0.8017 0.3382 0.4928
vn -0.7262 0.2604 0.6362
vn 0.6041 0.1041 0.7900
vn 0.2221 -0.8483 0.4807
vn -0.6650 0.0073 0.7468
vn 0.3401 -0.2285 0.9122
vn 0.2870 0.6031 0.7443
vn 0.2950 0.5002 0.8141
vn 0.0858 -0.2936 0.9521
vn 0.4136 0.0300 0.9099
vn 0.1400 -0.9814 0.1315
vn 0.9344 -0.3470 0.0801
vn 0.9719 -0.1942 -0.1333
vn 0.9891 -0.1414 -0.0409
vn 0.0913 0.6410 0.7621
vn 0.9398 0.2105 0.2692
vn 0.8824 -0.1569 0.4436
vn 0.8830 -0.3228 0.3407
vn 0.9707 0.0198 0.2394
vn 0.7982 0.1345 0.5871
vn 0.5941 0.5881 0.5488
vn -0.0658 0.2399 0.9686
vn 0.2607 -0.5308 0.8064
vn 0.0835 0.6639 0.7432
vn 0.8660 -0.2203 0.4489
vn 0.0675 -0.1057 -0.9921
vn 0.6443 -0.1128 -0.7564
vn 0.9824 -0.1346 -0.1295
vn 0.4956 -0.4556 0.7395
vn 0.1453 -0.2156 0.9656
vn 0.0482 0.9773 -0.2064
vn 0.0961 0.9593 0.2657
vn 0.9189 -0.3553 0.1718
vn 0.8510 0.5250 0.0079
vn 0.4893 0.8573 0.1601
vn 0.7078 0.7055 0.0350
vn 0.1291 0.3484 -0.9284
vn 0.3071 0.6138 -0.7273
vn 0.0653 -0.7250 -0.6857
vn 0.8027 -0.5232 -0.2863
vn 0.6411 -0.1326 0.7559
vn 0.0671 0.1048 -0.9922
vn 0.8647 0.0821 -0.4955
vn 0.9532 0.0563 -0.2969
vn 0.4234 0.7785 0.4633
vn 0.5347 0.5275 0.6602
vn -0.6041 0.1041 0.7900
vn -0.2090 -0.8472 0.4884
vn -0.0713 -0.1919 0.9788
vn -0.3401 -0.2285 0.9122
vn -0.6166 0.2274 0.7537
vn -0.3322 0.5535 0.7638
vn -0.8117 0.2437 0.5307
vn -0.2190 0.1913 0.9568
vn 0.0340 -0.1944 0.9803
vn -0.4031 -0.9077 0.1167
vn -0.9342 -0.3411 0.1042
vn -0.9795 -0.1732 -0.1030
vn -0.9092 -0.1952 0.3678
vn -0.7495 -0.6514 0.1184
vn -0.9707 0.0198 0.2394
vn -0.5669 0.2381 0.7887
vn -0.4114 0.0474 0.9102
vn -0.5969 -0.3956 0.6980
vn -0.6678 -0.1101 -0.7362
vn -0.5090 -0.2208 0.8319
vn -0.9424 0.2807 0.1820
vn -0.8510 0.5250 0.0079
vn -0.4863 0.8608 0.1503
vn -0.7301 0.6801 0.0668
vn -0.5063 -0.6803 -0.5300
vn -0.3345 0.2572 -0.9066
vn -0.9934 -0.0560 0.1004
vn 0.2175 -0.9360 0.2769
vn 0.2698 0.7964 0.5412
vn -0.8458 0.2293 0.4816
usemtl initialShadingGroup
s 1
f 2/1/1 4/2/2 1/3/1
f 5/4/3 3/5/4 2/1/5
f 8/6/6 10/7/7 7/8/8
f 11/9/9 9/10/10 8/6/11
f 13/11/12 15/12/13 6/13/14
f 17/14/15 6/13/16 16/15/17
f 18/16/18 17/14/19 16/15/20
f 12/17/21 19/18/22 18/16/18
f 20/19/23 21/20/24 22/21/25
f 7/8/26 20/19/23 14/22/27
f 22/21/25 24/23/28 20/19/23
f 15/12/29 20/19/23 24/23/28
f 26/24/30 28/25/31 25/26/32
f 25/26/33 5/4/34 26/24/35
f 28/25/36 30/27/37 25/26/38
f 31/28/39 33/29/40 34/30/41
f 33/29/42 35/31/43 36/32/44
f 36/32/45 38/33/46 39/34/47
f 39/34/47 40/35/48 41/36/49
f 42/37/50 44/38/51 45/39/52
f 41/36/53 46/40/54 47/41/55
f 6/13/56 34/30/57 16/15/58
f 34/30/59 30/27/60 31/28/61
f 33/29/42 16/15/62 34/30/63
f 36/32/64 35/31/65 37/42/66
f 18/16/67 36/32/45 39/34/47
f 41/36/49 18/16/67 39/34/47
f 12/17/68 47/41/55 9/10/69
f 47/41/70 43/43/71 42/37/72
f 10/7/73 45/39/52 21/20/74
f 42/37/72 9/10/75 47/41/70
f 23/44/76 3/5/77 24/23/78
f 3/5/77 15/12/79 24/23/78
f 3/5/80 6/13/81 49/45/82
f 49/45/83 15/12/84 48/46/85
f 51/47/86 53/48/87 50/49/88
f 55/50/89 50/49/90 54/51/91
f 56/52/92 55/50/89 54/51/91
f 37/42/93 59/53/94 57/54/95
f 29/55/96 61/56/97 30/27/98
f 50/49/88 63/57/99 62/58/100
f 65/59/101 67/60/102 64/61/103
f 43/43/104 67/60/105 44/38/106
f 38/33/107 57/54/108 56/52/109
f 38/33/107 68/62/110 40/35/111
f 40/35/112 69/63/113 46/40/114
f 46/40/115 64/61/116 43/43/117
f 54/51/91 62/58/118 70/64/119
f 56/52/92 70/64/119 68/62/120
f 68/62/121 71/65/122 69/63/123
f 64/61/124 71/65/125 65/59/126
f 62/58/127 66/66/128 65/59/129
f 70/64/130 65/59/131 71/65/122
f 51/47/132 73/67/133 52/68/134
f 55/50/135 72/69/136 51/47/137
f 55/50/135 75/70/138 74/71/139
f 76/72/140 30/27/141 61/56/142
f 73/67/143 77/73/144 78/74/145
f 74/71/146 79/75/147 80/76/148
f 72/69/149 80/76/148 77/73/150
f 81/77/151 31/28/152 76/72/153
f 79/75/154 32/78/155 81/77/151
f 58/79/156 32/78/157 59/53/158
f 32/78/159 57/54/160 59/53/161
f 4/2/162 83/80/163 1/3/164
f 21/20/165 86/81/166 84/82/167
f 85/83/168 88/84/169 86/81/170
f 89/85/171 90/86/172 91/87/173
f 82/88/174 93/89/175 92/90/176
f 94/91/177 93/89/178 95/92/179
f 87/93/180 95/92/179 88/84/169
f 22/21/181 84/82/182 91/87/183
f 22/21/184 90/86/185 23/44/186
f 28/25/187 97/94/188 96/95/189
f 96/95/190 83/80/191 82/88/192
f 98/96/193 28/25/194 96/95/195
f 99/97/196 101/98/197 102/99/198
f 101/98/199 104/100/200 102/99/201
f 103/101/202 106/102/203 104/100/204
f 105/103/205 108/104/206 106/102/203
f 107/105/207 110/106/208 108/104/209
f 82/88/210 100/107/211 96/95/212
f 100/107/213 98/96/214 96/95/215
f 92/90/216 101/98/199 100/107/217
f 103/101/202 94/91/218 105/103/205
f 107/105/219 94/91/218 87/93/220
f 87/93/221 109/108/222 107/105/207
f 109/108/223 44/38/224 110/106/225
f 45/39/226 85/83/227 21/20/228
f 4/2/229 90/86/230 111/109/231
f 4/2/232 112/110/233 82/88/234
f 112/110/235 90/86/236 82/88/237
f 53/48/238 114/111/239 113/112/240
f 115/113/241 114/111/239 116/114/242
f 117/115/243 29/55/244 98/96/245
f 106/102/246 116/114/247 104/100/248
f 106/102/246 118/116/249 115/113/250
f 119/117/251 108/104/252 110/106/253
f 67/60/254 110/106/255 44/38/256
f 63/57/257 113/112/240 120/118/258
f 120/118/258 115/113/241 118/116/259
f 121/119/260 118/116/261 119/117/262
f 121/119/263 67/60/264 66/66/265
f 120/118/266 66/66/267 63/57/268
f 73/67/269 114/111/270 52/68/271
f 114/111/270 102/99/272 116/114/273
f 117/115/243 99/97/274 123/120/275
f 122/121/276 125/122/277 102/99/278
f 73/67/279 124/123/280 122/121/276
f 99/97/281 125/122/282 123/120/283
f 127/124/284 116/114/285 126/125/286
f 116/114/287 128/126/288 126/125/289
f 104/100/290 127/124/291 129/127/291
f 104/100/292 128/126/293 102/99/294
f 128/126/295 127/124/296 126/125/297
f 2/1/1 3/5/2 4/2/2
f 5/4/3 6/13/298 3/5/4
f 8/6/6 9/10/299 10/7/7
f 11/9/9 12/17/21 9/10/10
f 13/11/12 14/22/300 15/12/13
f 17/14/15 13/11/301 6/13/16
f 18/16/18 19/18/22 17/14/19
f 12/17/21 11/9/9 19/18/22
f 20/19/23 10/7/302 21/20/24
f 7/8/26 10/7/302 20/19/23
f 22/21/25 23/44/303 24/23/28
f 15/12/29 14/22/27 20/19/23
f 26/24/30 27/128/304 28/25/31
f 25/26/33 6/13/305 5/4/34
f 28/25/36 29/55/306 30/27/37
f 31/28/39 32/78/307 33/29/40
f 33/29/42 32/78/308 35/31/43
f 36/32/45 37/42/309 38/33/46
f 39/34/47 38/33/46 40/35/48
f 42/37/50 43/43/310 44/38/51
f 41/36/53 40/35/311 46/40/54
f 6/13/56 25/26/312 34/30/57
f 34/30/59 25/26/313 30/27/60
f 33/29/42 36/32/44 16/15/62
f 18/16/67 16/15/314 36/32/45
f 41/36/49 12/17/315 18/16/67
f 12/17/68 41/36/53 47/41/55
f 47/41/70 46/40/316 43/43/71
f 10/7/73 42/37/50 45/39/52
f 42/37/72 10/7/317 9/10/75
f 23/44/76 4/2/318 3/5/77
f 3/5/77 48/46/319 15/12/79
f 49/45/83 6/13/320 15/12/84
f 51/47/86 52/68/321 53/48/87
f 55/50/89 51/47/322 50/49/90
f 56/52/92 57/54/323 55/50/89
f 37/42/93 58/79/324 59/53/94
f 29/55/96 60/129/325 61/56/97
f 50/49/88 53/48/87 63/57/99
f 65/59/101 66/66/326 67/60/102
f 43/43/104 64/61/327 67/60/105
f 38/33/107 37/42/328 57/54/108
f 38/33/107 56/52/109 68/62/110
f 40/35/112 68/62/329 69/63/113
f 46/40/115 69/63/330 64/61/116
f 54/51/91 50/49/90 62/58/118
f 56/52/92 54/51/91 70/64/119
f 68/62/121 70/64/130 71/65/122
f 64/61/124 69/63/331 71/65/125
f 62/58/127 63/57/332 66/66/128
f 70/64/130 62/58/333 65/59/131
f 51/47/132 72/69/334 73/67/133
f 55/50/135 74/71/139 72/69/136
f 55/50/135 57/54/335 75/70/138
f 76/72/140 31/28/336 30/27/141
f 73/67/143 72/69/337 77/73/144
f 74/71/146 75/70/338 79/75/147
f 72/69/149 74/71/146 80/76/148
f 81/77/151 32/78/155 31/28/152
f 79/75/154 75/70/339 32/78/155
f 58/79/156 35/31/340 32/78/157
f 32/78/159 75/70/341 57/54/160
f 4/2/162 82/88/342 83/80/163
f 21/20/165 85/83/343 86/81/166
f 85/83/168 87/93/180 88/84/169
f 89/85/171 82/88/344 90/86/172
f 82/88/174 89/85/345 93/89/175
f 94/91/177 92/90/346 93/89/178
f 87/93/180 94/91/177 95/92/179
f 22/21/181 21/20/347 84/82/182
f 22/21/184 91/87/348 90/86/185
f 28/25/187 27/128/349 97/94/188
f 96/95/190 97/94/350 83/80/191
f 98/96/193 29/55/351 28/25/194
f 99/97/196 100/107/352 101/98/197
f 101/98/199 103/101/353 104/100/200
f 103/101/202 105/103/205 106/102/203
f 105/103/205 107/105/219 108/104/206
f 107/105/207 109/108/222 110/106/208
f 82/88/210 92/90/354 100/107/211
f 100/107/213 99/97/355 98/96/214
f 92/90/216 103/101/353 101/98/199
f 103/101/202 92/90/356 94/91/218
f 107/105/219 105/103/205 94/91/218
f 87/93/221 85/83/357 109/108/222
f 109/108/223 45/39/226 44/38/224
f 45/39/226 109/108/223 85/83/227
f 4/2/229 23/44/358 90/86/230
f 112/110/235 111/109/359 90/86/236
f 53/48/238 52/68/360 114/111/239
f 115/113/241 113/112/240 114/111/239
f 117/115/243 60/129/361 29/55/244
f 106/102/246 115/113/250 116/114/247
f 106/102/246 108/104/362 118/116/249
f 119/117/251 118/116/363 108/104/252
f 67/60/254 119/117/364 110/106/255
f 63/57/257 53/48/238 113/112/240
f 120/118/258 113/112/240 115/113/241
f 121/119/260 120/118/266 118/116/261
f 121/119/263 119/117/365 67/60/264
f 120/118/266 121/119/260 66/66/267
f 73/67/269 122/121/366 114/111/270
f 114/111/270 122/121/366 102/99/272
f 117/115/243 98/96/245 99/97/274
f 122/121/276 124/123/280 125/122/277
f 73/67/279 78/74/367 124/123/280
f 99/97/281 102/99/368 125/122/282
f 127/124/284 104/100/369 116/114/285
f 116/114/287 102/99/370 128/126/288
f 128/126/295 129/127/371 127/124/296
